PathFileType	4	(X/Y/Z)	A12_1_OpenSim.trc																																																																																																																						
DataRate	CameraRate	NumFrames	NumMarkers	Units	OrigDataRate	OrigDataStartFrame	OrigNumFrames																																																																																																																		
100	100	5	40	mm	100	1	3000																																																																																																																		
Frame#	Time	R.ASIS			R.PSIS			S2			L.PSIS			L.ASIS			R.TH1			R.TH2			R.TH3			R.MKnee			R.Knee			R.SH1			R.SH2			R.SH3			R.SH4			R.Ankle			R.MAnkle			R.Heel			R.MT5			R.MT1			L.TH1			L.TH2			L.TH3			L.TH4			L.MKnee			L.Knee			L.SH1			L.SH2			L.SH3			L.Ankle			L.MAnkle			L.Heel			L.MT5			L.MT1			R.Acr			L.Acr			C7			T10			Clav			Sternum			R.Back		
		X1	Y1	Z1	X2	Y2	Z2	X3	Y3	Z3	X4	Y4	Z4	X5	Y5	Z5	X6	Y6	Z6	X7	Y7	Z7	X8	Y8	Z8	X9	Y9	Z9	X10	Y10	Z10	X11	Y11	Z11	X12	Y12	Z12	X13	Y13	Z13	X14	Y14	Z14	X15	Y15	Z15	X16	Y16	Z16	X17	Y17	Z17	X18	Y18	Z18	X19	Y19	Z19	X20	Y20	Z20	X21	Y21	Z21	X22	Y22	Z22	X23	Y23	Z23	X24	Y24	Z24	X25	Y25	Z25	X26	Y26	Z26	X27	Y27	Z27	X28	Y28	Z28	X29	Y29	Z29	X30	Y30	Z30	X31	Y31	Z31	X32	Y32	Z32	X33	Y33	Z33	X34	Y34	Z34	X35	Y35	Z35	X36	Y36	Z36	X37	Y37	Z37	X38	Y38	Z38	X39	Y39	Z39	X40	Y40	Z40
1	0	928.3865	1042.8364	-414.2745	735.0652	1043.6941	-492.7415	725.9117	1039.6606	-537.5883	728.9133	1047.2838	-587.6979	899.1463	1040.6993	-704.1499	987.3981	733.1031	-391.8757	911.8455	701.3479	-383.1822	952.9127	600.4	-398.5932	1016.5498	499.67	-522.1996	1020.4792	504.6168	-406.2355	1074.6727	348.6494	-403.1466	1107.0819	242.2142	-420.2326	995.7372	324.9618	-395.1762	1032.0057	218.0224	-403.6004	1095.2681	70.819	-412.4393	1130.2163	96.7527	-503.9191	1041.7353	32.3261	-473.951	1214.0066	43.0433	-384.5616	1262.2964	54.4517	-471.6059	867.8481	735.4968	-717.8819	847.774	628.8116	-708.1536	785.3522	746.1219	-730.0356	768.7822	639.0917	-711.1187	796.1578	480.4378	-591.896	784.9081	491.2736	-701.6403	718.9583	369.584	-717.9022	649.8243	415.0349	-717.1222	592.2885	321.6291	-711.3667	529.8081	113.487	-710.4798	566.1226	119.0085	-613.8074	457.4944	98.808	-651.9057	614.9403	34.4367	-727.2718	657.7634	46.6505	-625.7347	851.2731	1432.3779	-394.9517	824.1646	1422.7482	-722.5727	778.4823	1472.4415	-559.5734	753.9454	1145.094	-545.7476	919.0469	1379.7849	-565.4347	951.0928	1237.0992	-556.0005	705.788	1373.1227	-469.2718
2	0.01	929.7493	1044.5347	-412.3787	736.4051	1044.1428	-490.6737	727.0394	1039.806	-535.51	729.8466	1047.0767	-585.6625	900.2368	1040.3843	-701.9517	990.4778	734.8561	-389.3044	915.0863	702.9066	-380.3867	956.4732	602.0488	-395.8991	1019.1894	501.4324	-520.7625	1024.2423	506.0399	-404.7992	1074.5741	348.5411	-402.4175	1103.6442	241.3502	-420.1085	995.4011	326.9266	-392.5018	1028.6431	219.0819	-401.7702	1084.9845	71.508	-412.2097	1120.6008	96.203	-503.8655	1030.574	33.0269	-473.4832	1203.1454	41.8153	-384.2331	1252.1765	50.5598	-471.4144	873.093	734.8845	-716.1851	855.1334	627.7811	-707.7617	790.3227	744.046	-727.73	775.9602	636.5144	-710.1137	807.9653	477.2822	-592.9493	795.0576	489.4823	-702.6233	725.1619	370.5165	-719.4179	657.9563	418.4138	-716.9323	597.1204	327.3318	-711.4467	526.926	121.3305	-712.6617	563.6479	125.397	-616.4244	454.596	112.8419	-653.8766	605.3107	36.1062	-728.3011	648.068	47.2548	-626.2497	852.4039	1433.384	-393.1396	824.5029	1422.7642	-720.4654	779.0222	1472.5601	-557.7646	754.787	1145.2743	-543.9937	919.8118	1380.3302	-563.5082	952.223	1237.8492	-553.869	707.0253	1373.2891	-466.8347
3	0.02	931.0438	1046.2601	-410.4989	737.6685	1044.6151	-488.6375	728.0978	1039.9734	-533.4579	730.7087	1046.8978	-583.6551	901.2657	1040.1167	-699.769	993.3914	736.5439	-386.797	918.1332	704.4509	-377.671	959.7528	603.6679	-393.3509	1021.6123	503.1769	-519.4017	1027.6587	507.4031	-403.4547	1074.1469	348.4153	-401.7655	1099.9211	240.5095	-420.0479	994.7603	328.8481	-389.9842	1024.9793	220.1491	-400.0654	1074.5809	72.1715	-412.003	1110.7885	95.7037	-503.8606	1019.348	33.6757	-473.0471	1192.1786	40.7071	-383.928	1241.8825	47.0397	-471.2311	878.4642	734.3328	-714.4802	862.6755	626.825	-707.3159	795.4441	741.9766	-725.5074	783.332	633.971	-709.1572	819.9509	474.2833	-593.8901	805.4811	487.7528	-703.523	731.8339	371.467	-720.8212	666.574	421.7872	-716.8567	602.463	333.0724	-711.6393	524.5758	129.5909	-714.8244	561.5623	132.1149	-618.9663	452.3113	127.2795	-655.9081	596.0412	38.3716	-729.3118	638.713	48.2563	-626.7849	853.5084	1434.4431	-391.3684	824.7872	1422.8478	-718.3767	779.5152	1472.7268	-555.9585	755.5826	1145.5034	-542.2328	920.5256	1380.9148	-561.6195	953.2958	1238.6363	-551.7817	708.2335	1373.5055	-464.4059
4	0.03	932.214	1048.0214	-408.6498	738.7938	1045.1295	-486.6611	729.0288	1040.1802	-531.4567	731.4401	1046.7695	-581.7015	902.1755	1039.936	-697.6241	995.9667	738.098	-384.4158	920.7889	705.955	-375.1212	962.4874	605.2147	-391.0726	1023.5607	504.8606	-518.1933	1030.4191	508.6447	-402.276	1073.1055	348.2525	-401.2445	1095.6815	239.706	-420.0847	993.5379	330.6832	-387.7712	1020.7583	221.2219	-398.5998	1063.9758	72.7917	-411.8404	1100.6564	95.2842	-503.9327	1008.0144	34.2413	-472.6653	1181.0391	39.7945	-383.6663	1231.2998	44.1433	-471.0663	884.0546	733.904	-712.7586	870.5388	626.0174	-706.759	800.8349	739.9332	-723.4298	791.0474	631.5041	-708.2726	832.2145	471.6	-594.5999	816.3932	486.1549	-704.2551	739.3399	372.4641	-721.9988	676.0505	425.165	-716.9844	608.7159	338.8913	-712.0284	523.2014	138.6227	-716.9176	560.1875	139.455	-621.3298	451.1483	142.4236	-658.0164	587.4844	41.7735	-730.278	630.032	50.015	-627.3508	854.5689	1435.5892	-389.6751	824.9686	1423.0502	-716.3278	779.9243	1472.9829	-554.1619	756.2958	1145.8193	-540.4621	921.147	1381.5682	-559.8049	954.2592	1239.4835	-549.7819	709.3848	1373.8147	-461.9953
5	0.04	933.2248	1049.804	-406.8444	739.7442	1045.6975	-484.7678	729.7921	1040.4396	-529.5286	732.004	1046.7075	-579.8245	902.9163	1039.8702	-695.549	998.0364	739.4499	-382.2162	922.8677	707.3822	-372.8209	964.4525	606.6345	-389.1479	1024.7612	506.4159	-517.1995	1032.2794	509.7042	-401.3072	1071.24	348.0317	-400.8753	1090.7765	238.9387	-420.2157	991.5171	332.3897	-385.9838	1015.8066	222.2809	-397.4623	1053.1434	73.3607	-411.7389	1090.1772	94.9469	-504.0863	996.5613	34.7187	-472.3487	1169.7087	39.099	-383.4598	1220.3912	41.9583	-470.9304	889.9066	733.6654	-711.0117	878.792	625.4339	-706.0361	806.5617	737.9584	-721.5265	799.1884	629.1743	-707.4476	844.7403	469.3909	-594.9569	827.9146	484.7736	-704.7401	747.8827	373.5558	-722.8431	686.5834	428.5806	-717.359	616.104	344.8327	-712.6489	523.1082	148.6606	-718.8495	559.7483	147.6285	-623.3867	451.4475	158.4005	-660.1475	579.9806	46.7262	-731.1627	622.3439	52.813	-627.9433	855.5795	1436.8293	-388.0885	825.0062	1423.3976	-714.3438	780.2277	1473.3595	-552.3872	756.9044	1146.2463	-538.6849	921.6492	1382.3066	-558.0967	955.0718	1240.395	-547.9105	710.4532	1374.2499	-459.6137
